<?xml version="1.0" standalone="no"?>
<!DOCTYPE svg PUBLIC "-//W3C//DTD SVG 20010904//EN"
 "http://www.w3.org/TR/2001/REC-SVG-20010904/DTD/svg10.dtd">
<svg version="1.0" xmlns="http://www.w3.org/2000/svg"
 width="512.000000pt" height="512.000000pt" viewBox="0 0 512.000000 512.000000"
 preserveAspectRatio="xMidYMid meet">
<metadata>
Created by potrace 1.14, written by Peter Selinger 2001-2017
</metadata>
<g transform="translate(0.000000,512.000000) scale(0.100000,-0.100000)"
fill="#000000" stroke="none">
<path d="M1225 5109 c-5 -5 -48 -47 -95 -92 -202 -197 -376 -419 -527 -672
-29 -49 -58 -97 -63 -105 -17 -27 -130 -250 -129 -255 0 -4 -6 -16 -14 -28
-21 -33 -83 -177 -134 -312 -24 -66 -48 -129 -53 -140 -33 -76 -138 -449 -176
-625 -41 -193 -41 -194 27 -305 49 -80 102 -161 149 -230 98 -143 91 -123 105
-295 3 -36 7 -78 9 -95 2 -16 7 -57 10 -90 4 -33 11 -95 17 -137 5 -43 12 -92
14 -110 4 -35 13 -95 22 -143 3 -16 7 -43 9 -60 6 -49 13 -94 34 -210 11 -60
22 -128 26 -150 3 -22 8 -43 10 -46 2 -4 6 -24 10 -45 5 -32 22 -114 50 -239
3 -11 7 -31 9 -45 6 -38 34 -152 44 -180 5 -14 14 -50 21 -80 17 -77 98 -370
110 -397 7 -16 15 -21 32 -18 13 3 39 8 58 11 99 16 283 56 345 74 39 12 81
23 93 26 13 3 68 20 121 38 367 126 714 307 1044 544 l128 91 92 -68 c51 -37
135 -96 187 -130 52 -33 100 -65 107 -71 7 -5 14 -10 17 -10 2 0 39 -20 81
-45 130 -77 480 -245 540 -260 6 -1 21 -6 35 -12 43 -17 178 -64 197 -68 10
-2 56 -15 103 -29 47 -14 96 -27 110 -30 24 -5 344 -66 346 -66 1 0 4 12 7 27
2 16 21 83 41 151 19 67 38 133 40 145 2 12 9 34 14 48 6 14 13 39 15 55 3 16
17 76 31 134 29 121 46 194 52 230 3 14 9 41 14 60 5 19 12 49 14 65 3 17 8
41 11 55 3 14 8 36 10 50 2 14 9 50 15 80 6 30 13 71 16 90 3 19 12 68 20 107
8 40 14 76 13 80 -1 5 0 11 1 16 1 4 3 15 4 25 2 17 16 115 21 142 1 8 6 38 9
65 4 28 9 61 11 75 3 14 7 50 10 80 3 30 7 71 10 90 2 19 7 67 10 107 4 39 8
80 10 90 2 10 4 30 4 45 1 15 7 33 14 40 6 7 19 23 27 34 147 210 198 286 253
377 36 59 63 107 59 107 -4 0 -1 4 6 9 11 7 11 18 -1 67 -9 32 -19 79 -23 104
-10 55 -9 51 -17 75 -3 11 -8 31 -11 45 -29 148 -121 451 -196 650 -222 579
-500 1024 -872 1393 l-109 107 -1322 0 c-853 -1 -1326 -4 -1332 -11z m155
-2156 c57 -33 83 -111 83 -238 0 -95 -18 -153 -60 -197 -38 -40 -108 -54 -154
-32 -15 7 -29 11 -31 8 -11 -10 -61 71 -74 119 -17 65 -13 210 8 258 41 96
143 133 228 82z m2466 13 c69 -15 115 -107 116 -231 1 -89 -8 -129 -39 -183
-37 -66 -108 -91 -183 -68 -67 22 -110 111 -111 234 -1 91 5 122 38 183 19 35
33 49 66 61 43 16 59 16 113 4z m-2061 -201 c0 -110 4 -203 8 -206 4 -3 26 -5
48 -4 l40 2 -3 -36 -3 -35 -125 -1 c-167 0 -170 0 -170 39 l0 31 58 0 57 0 1
158 c0 86 -1 157 -3 157 -7 0 -58 -35 -65 -45 -4 -5 -8 -6 -8 -1 0 5 -7 3 -16
-4 -13 -11 -16 -10 -21 8 -3 12 -9 22 -14 22 -5 0 -9 6 -9 13 0 7 34 34 76 59
57 35 84 46 112 44 l37 -1 0 -200z m716 125 c21 -41 42 -76 46 -77 4 -2 24 31
43 72 19 41 37 75 40 76 3 1 27 2 53 4 31 1 46 -2 43 -9 -2 -6 -31 -56 -64
-110 l-59 -99 30 -56 c17 -31 47 -87 69 -124 21 -38 38 -72 38 -76 0 -3 -21
-6 -47 -6 l-48 0 -32 60 c-18 32 -33 64 -33 71 0 6 -8 22 -19 35 l-18 23 -48
-95 -47 -95 -42 2 c-22 1 -45 2 -49 3 -5 1 2 20 16 44 14 23 37 65 53 92 15
28 35 65 45 82 19 33 19 33 -11 83 -17 28 -30 55 -30 60 0 4 -3 10 -7 12 -5 2
-20 26 -36 54 l-27 52 52 -2 51 -1 38 -75z m950 -23 c0 -56 1 -149 2 -207 l2
-105 35 -1 c19 -1 40 -2 47 -3 15 -1 14 -61 -1 -62 -72 -6 -279 -2 -284 6 -4
6 -7 22 -7 36 -1 26 1 27 57 24 36 -1 58 2 59 9 2 22 4 306 2 306 -1 0 -25
-14 -54 -30 -28 -17 -52 -30 -53 -28 0 2 -8 16 -17 32 -17 29 -17 30 18 53 18
13 36 23 39 23 3 0 20 10 38 23 20 13 51 23 75 24 l41 2 1 -102z"/>
<path d="M1263 2892 c-13 -9 -27 -31 -31 -47 -10 -36 -16 -215 -7 -215 3 0 33
57 67 127 57 119 59 127 42 140 -24 17 -44 16 -71 -5z"/>
<path d="M1308 2685 c-33 -69 -59 -128 -56 -130 6 -6 41 -9 69 -6 31 2 53 69
54 169 1 50 0 92 -2 92 -2 0 -31 -56 -65 -125z"/>
<path d="M3754 2889 c-8 -9 -19 -31 -25 -50 -10 -34 -15 -196 -7 -205 3 -2 26
40 52 93 26 54 54 111 63 126 14 26 13 29 -4 42 -23 18 -60 15 -79 -6z"/>
<path d="M3808 2689 c-58 -119 -65 -138 -50 -140 4 0 16 -2 26 -4 52 -10 87
50 90 155 5 121 -3 119 -66 -11z"/>
</g>
</svg>
